<svg aria-hidden="true" style="position:absolute;width:0;height:0;overflow:hidden" xmlns="http://www.w3.org/2000/svg"><defs>
    <symbol id="icon-Ellipse-in" viewBox="0 0 32 32"><path opacity=".1" d="M32 16A16 16 0 0 1 4.7 27.3 16 16 0 0 1 16 0a16 16 0 0 1 16 16z"/><path d="M23.3 23.3v-5.4c0-2.6-.6-4.6-3.6-4.6-1.5 0-2.5.8-2.9 1.6v-1.3h-3v9.7h3v-4.8c0-1.3.3-2.5 1.9-2.5 1.5 0 1.6 1.4 1.6 2.5v4.8h3zM9 13.6h3v9.7H9v-9.7zM10.5 8.7c-1 0-1.8.8-1.8 1.8s.8 1.7 1.8 1.7 1.7-.8 1.7-1.7-.8-1.8-1.7-1.8z"/></symbol>
<symbol id="icon-Ellipse-fb" viewBox="0 0 32 32"><path opacity=".1" d="M32 16A16 16 0 0 1 4.7 27.3 16 16 0 0 1 16 0a16 16 0 0 1 16 16z"/><path d="M18.4 11.1h1.4V8.8h-2c-1.9 0-3.2 1.1-3.2 3.3v2h-2.1v2.7h2v6.5h2.7v-6.5h2l.3-2.6h-2.3v-1.8c0-.7.2-1.3 1.2-1.3z"/></symbol>
    <symbol id="icon-Ellipse-tw" viewBox="0 0 32 32"><path d="M32 16A16 16 0 0 1 4.7 27.3 16 16 0 0 1 16 0a16 16 0 0 1 16 16z"/><path d="m23.3 11.5-1.7.5c.6-.4 1-1 1.3-1.7a6 6 0 0 1-2 .7 3 3 0 0 0-5 2.8 8.4 8.4 0 0 1-6.2-3.2 3 3 0 0 0 1 4 3 3 0 0 1-1.4-.3 3 3 0 0 0 2.4 3 3 3 0 0 1-1.3 0 3 3 0 0 0 2.7 2 6 6 0 0 1-4.4 1.3c1.3.8 3 1.3 4.6 1.3a8.4 8.4 0 0 0 8.5-8.9c.6-.4 1-.9 1.5-1.5z"/></symbol>
<symbol id="icon-Ellipse-instagram" viewBox="0 0 32 32"><path opacity=".1" d="M32 16A16 16 0 0 1 4.7 27.3 16 16 0 0 1 16 0a16 16 0 0 1 16 16z"/><path d="M23.3 13c0-.8-.2-1.3-.4-1.8s-.4-.9-.8-1.3l-1.3-.8a49.4 49.4 0 0 0-9.5 0L10 10c-.4.4-.7.9-.9 1.3-.1.5-.3 1-.3 1.8a49.8 49.8 0 0 0 .3 7.8c.2.5.5.9.9 1.3l1.3.8a53.3 53.3 0 0 0 9.5 0c1-.4 1.7-1.2 2.1-2.1l.4-1.8v-6zm-1.4 6c0 .7-.1 1-.2 1.3-.2.6-.7 1.1-1.4 1.4a51.2 51.2 0 0 1-8.6 0c-.3-.1-.6-.3-.8-.6l-.5-.8a51.2 51.2 0 0 1 0-8.6c0-.3.3-.6.5-.8.2-.3.5-.4.8-.6a51.2 51.2 0 0 1 8.6 0l.9.6.5.8.2 1.4v5.8z"/><path d="M16 12.3a3.7 3.7 0 1 0 0 7.4 3.7 3.7 0 0 0 0-7.4zm0 6.1a2.4 2.4 0 1 1 0-4.8 2.4 2.4 0 0 1 0 4.8zM20.8 12.1a.9.9 0 1 1-1.8 0 .9.9 0 0 1 1.8 0z"/></symbol>
    <symbol id="icon-group-4" viewBox="0 0 32 32"><path d="m2.4 23.7.2.5v.4l-.3.3-.8.2H0v-3.2h1.4c.3 0 .6.1.8.3l.3.2v.3l-.1.5-.5.3.5.2zm-1.7-.4h.6l.4-.1.1-.2c.1 0 0 0 0-.1v-.2l-.1-.2a.6.6 0 0 0-.4 0H.7v.8zm1 1.2.2-.2V24l-.1-.2a.7.7 0 0 0-.5 0H.7v.8h.6l.5-.1zM5.4 25 4.6 24h-.3V25h-.7v-3.2h1.3l.9.3.3.6c0 .2 0 .5-.2.7l-.6.3.8 1.3h-.7zm-1.1-1.6h.5c.4 0 .6-.1.6-.4v-.2l-.1-.2a.7.7 0 0 0-.5-.1h-.5v1zM9.1 24.5H7.8l-.3.6h-.7L8.1 22h.8l1.2 3h-.7l-.3-.5zM9 24l-.5-1.3L8 24h1zM13.9 25h-.7l-1.5-2v2H11v-3h.7l1.5 2.1v-2.2h.7v3.2zM17.8 24.3c-.1.3-.4.5-.6.6l-1 .2H15v-3.2h1.2l1 .2.6.6.2.8-.2.8zm-.8 0c.2-.2.3-.5.3-.8s-.1-.5-.3-.7c-.2-.2-.5-.3-.8-.3h-.5v2h.5c.3 0 .6 0 .8-.2zM9.6 4.5s8.8 3 8.6 7.4v7.5s-8.8-3-8.6-7.5V4.5zM26.1 17.7c1.7-1 3.6-1.7 5.7-2v-2.3c-2.4.9-4.3 2.4-5.7 4.3z"/><path d="M25.1 18.4c1.4-2.5 3.8-4.5 6.7-5.5V6.2s-12.6 4.4-12.4 10.7v10.6L21 27v-1c.3-3 1.8-5.7 4.2-7.6z"/><path d="M24 22.4c0-.8.1-1.5.4-2.2a9.9 9.9 0 0 0-2.7 6.4l2.4-1.2c-.2-1-.3-2-.2-3zM24.4 22.4c0 1 0 1.9.2 2.8 3.4-1.9 7.3-4.8 7.2-8.3v-.3c-2.5.2-4.8 1.2-6.6 2.8-.4 1-.7 2-.8 3z"/></symbol>
<symbol id="icon-group-3" viewBox="0 0 32 32"><path d="M5 13c-1 0-1.7.7-1.7 1.5S4 15.9 5 15.9c1 0 1.7-.6 1.7-1.4 0-.8-.7-1.5-1.7-1.5zM17 12.6c0-1.2-.5-2.2-1.4-3s-2-1.2-3.3-1.2c-1.3 0-2.5.4-3.4 1.2s-1.3 1.8-1.3 3v6.1s9.4-1 9.4-6.1zM0 20.7c0 .8.3 1.5 1 2s1.4 1 2.3 1c.9 0 1.7-.4 2.3-1s1-1.2 1-2v-4.2S0 17 0 20.7zm3.3.8-.5-.1a.6.6 0 0 1-.3-.4v-.4c0-.1 0-.3.2-.4L3 20h.5l.4.3a.7.7 0 0 1-.1 1l-.3.1h-.3zM10 21h-.7v.7H9v-1.6h1v.3h-.7v.4h.6v.3zm1.5 0v.4l-.3.3h-.7l-.2-.3-.1-.4v-.5l.3-.3.4-.1h.3l.3.4v.4zm-.3-.1v-.4l-.3-.1-.3.1-.1.4v.4l.4.2s.2 0 .2-.2l.1-.3v-.1zm1.4.4v-.1l-.3-.1-.3-.2-.2-.4v-.2l.2-.1a.8.8 0 0 1 .7 0l.2.1v.3h-.3v-.2h-.4l-.1.1v.2h.3l.4.3.1.3-.1.3-.4.1H12l-.2-.2v-.3h.2c0 .2.1.3.4.3h.1l.1-.2zm1.8-1h-.5v1.4h-.3v-1.3H13V20h1.3v.3zm1.1.7H15v.5h.7v.2h-1v-1.6h1v.3H15v.4h.6v.2zm1 .1h-.3v.6h-.4v-1.6h.6l.5.1.1.4v.3l-.3.2.4.6h-.4l-.3-.6zm-.3-.2h.4v-.4l-.2-.1h-.2v.5zm2 .3v.5h-.4v-1.6h1l.2.3v.6l-.5.2h-.3zm0-.3h.5v-.4l-.2-.1h-.3v.5zm2 .1h-.6v.5h.8v.2h-1.1v-1.6h1v.3h-.7v.4h.7v.2zm1.6-.6h-.5v1.3H21v-1.3h-.5V20h1.3v.3zm1.2.6h-.7v.5h.8v.2H22v-1.6h1v.3h-.7v.4h.7v.2zm.9.1h-.3v.6h-.3v-1.6h.6l.4.1.2.4-.1.3-.2.2.3.6h-.3l-.3-.6zm-.3-.2h.5v-.4l-.2-.1h-.3v.5zm2 .4-.1-.1-.3-.1-.2-.2c-.2 0-.3-.2-.3-.4v-.2l.3-.1a.8.8 0 0 1 .6 0l.2.1v.3h-.3v-.2H25V20.7h.2l.4.3.2.3c0 .1 0 .2-.2.3l-.4.1h-.4c-.2 0-.1-.1-.2-.2v-.3h.3c0 .2 0 .3.3.3h.2v-.2z"/></symbol>
    <symbol id="icon-group-2" viewBox="0 0 32 32"><path d="m5.3 30.3.2.2-.5.2c-.1.1-.4.2-.6.1h-.6l-.4-.3-.3-.4a1.4 1.4 0 0 1 0-1l.3-.5.5-.3a1.8 1.8 0 0 1 1.2 0l.4.3-.2.1H5a1.1 1.1 0 0 0-.5-.2l-.4.1a1 1 0 0 0-.6.5v.9l.2.3.3.2h.7a1 1 0 0 0 .5-.2zM9.7 29.5v.6l-.4.4-.4.2c-.4.2-.8.2-1.2 0l-.4-.2c-.2-.1-.3-.3-.3-.4-.2-.4-.2-.7 0-1 0-.2.1-.4.3-.5l.4-.3H9l.4.3a1.2 1.2 0 0 1 .4 1zm-.4 0v-.4a.9.9 0 0 0-.6-.5H8a1 1 0 0 0-.4.2l-.2.3v.9a.9.9 0 0 0 .6.5h.8l.4-.2.2-.3v-.5zM12.8 30a1.4 1.4 0 0 1 .1-.1l1-1.6h.5v2.5H14v-2l-1 1.6H12.7l-1-1.6V31h-.4v-2.6h.4l1 1.6h.1zM16.5 29.9v1h-.4v-2.6h1.4l.3.2.2.2v.4a.7.7 0 0 1-.2.5 1 1 0 0 1-.3.2h-1zm0-.3h.8l.2-.2.1-.1V29c.1-.1 0-.2 0-.2v-.2a.8.8 0 0 0-.6-.2h-.5v1zM21.7 30.8h-.4L21 30h-1.3l-.3.6v.1H19l1.2-2.5h.4l1.1 2.5zm-1.9-1H21l-.4-1-.1-.2v.1l-.1.1-.5 1zM23.4 28.3l1.8 2v-2h.3v2.5h-.2a.2.2 0 0 1-.1 0l-1.7-2v2H23v-2.5H23.4zM28.4 29.8v1H28v-1l-1-1.5h.4l.7 1v.2h.1l.1-.2.7-1h.4l-1 1.5zM12.6 24h.5c2.6-1 4.9-2.6 6.4-4.7s2.3-4.6 2.2-7L19 9.6c.5 2.7.3 5.4-.8 8s-3 4.7-5.5 6.3z"/><path d="M11.6 23.9c2.7-1.6 4.7-4 5.8-6.6s1.3-5.5.6-8.2l-4.2-3.6A15.3 15.3 0 0 1 11.6 24zM25.5 15.2c-.7 2.7-2.4 5.2-4.8 7l-2.3 1.4c2-.5 3.8-1.4 5.3-2.6s2.7-2.7 3.5-4.4l-1.7-1.4z"/><path d="m24.9 14.8-2.4-2.1c0 2.4-.8 4.6-2.2 6.7S16.8 23 14.5 24H16c2.2-.9 4.2-2.1 5.7-3.8s2.6-3.5 3-5.5zM12 4 9 1.6C6.7 2.4 4.5 3.9 3 5.8S.5 10.1.5 12.4c0 2.6 1 5.2 2.8 7.2s4.5 3.5 7.4 4.2c2.6-2.8 4.1-6.2 4.3-9.7S14.2 7 12 4zM31.4 14.4c0-3.1-1.4-6-4-8.2a14.6 14.6 0 0 0-14.2-2.7l17.3 15c.6-1.3.9-2.7.9-4.1z"/></symbol>
<symbol id="icon-group-1" viewBox="0 0 32 32"><path d="M14.2 1.8h-.7a14.2 14.2 0 0 0-.8 0c-2.3.1-4.5.7-6.5 1.7h-.3v13.7l.7-.2a23.3 23.3 0 0 1 6.7-1.2v1.8h-.7A20 20 0 0 0 4.2 20V2.5A18.3 18.3 0 0 1 13.5 0h.2a18.1 18.1 0 0 1 3.2.4v1.8a14 14 0 0 0-2.2-.4h-.5zm3.1 1.8h1.2a19.4 19.4 0 0 0 9.3-2.3v17.1a18.3 18.3 0 0 1-12.7 2.1V3.3a14.3 14.3 0 0 0 2.2.3zm8.8.1-.7.3-1.7.5a21.1 21.1 0 0 1-6.3.6h-.5v14h.4a14.2 14.2 0 0 0 5.3-.5c1.1-.2 2.2-.6 3.2-1.1l.3-.1V3.7zM5.4 26a1 1 0 0 0-.7-.3 1 1 0 0 0-.4 0 1 1 0 0 0-.5.6l-.1.4v2.8l.3.3.3.2h.8a1 1 0 0 0 .5-.6V28.8h-.5v.4l-.2.1h-.1l-.1.1a.3.3 0 0 1-.3-.1l-.1-.3v-2.6h.2s.1-.1.2 0c0-.1 0 0 .1 0H5V27h.7v-.3a1 1 0 0 0-.3-.7zM9 26a1 1 0 0 0-1.4 0 1 1 0 0 0-.2.3l-.1.4V29.4l.3.3.3.2a1 1 0 0 0 .8 0s.2 0 .3-.2l.2-.3.1-.4V26.3a1 1 0 0 0-.3-.4zm-.3 3a.4.4 0 0 1-.1.3.4.4 0 0 1-.6 0A.4.4 0 0 1 8 29v-2.3a.4.4 0 0 1 .1-.3.4.4 0 0 1 .6 0 .4.4 0 0 1 .1.3V29zM13.8 30v-4.3h-.6l-.8 2.3-.8-2.3H11V30h.6v-2.6l.6 1.8h.3l.6-1.8V30h.7zM17.2 26l-.3-.2h-1.4V30h.6v-1.7h.3l.6-.1.3-.3.2-.4a3 3 0 0 0 0-1l-.3-.5zm-.3 1.3v.2l-.2.2H16v-1.4h.6l.1.2.1.2v.6zM20 25.7h-.4l-1 4.3h.6l.2-1h.8l.2 1h.6l-1-4.3zm-.5 2.8.3-1.6.3 1.6h-.6zM24 28.3l-1-2.6h-.5V30h.6v-2.6L24 30h.6v-4.3H24v2.6zM27.7 25.7l-.5 1.7-.5-1.7H26l.9 2.5V30h.6v-1.8l.8-2.5h-.6zM3.7 31.2H4v.8h.2v-.8h.3V31h-.8v.2zM6.1 31l-.3 1H6v-.2h.4l.1.2h.2l-.4-1h-.2zm0 .6.1-.4.2.4H6zM8.6 31.6h.2v.1l-.2.1h-.2l-.1-.3c0-.2 0-.3.3-.3s.2 0 .2.1H9c0-.2-.2-.3-.4-.3l-.4.1-.1.2c-.1 0 0 .1 0 .2l.1.4a.5.5 0 0 0 .4.1c.1 0 .3 0 .4-.2v-.3h-.4v.1zM11 31h-.2v1h.7v-.2H11V31zM13.1 31H13v1h.2v-1zM15.2 31.7l-.4-.7h-.2v1h.1v-.7l.4.7h.2v-1h-.1v.7zM17 31.5h.5v-.1H17v-.2h.5V31h-.7v1h.8v-.2H17v-.3zM21.5 31.4H21V31h-.2v1h.2v-.4h.4v.4h.2v-1h-.2v.4zM23.3 31.5h.5v-.1h-.5v-.2h.6V31H23v1h.8v-.2h-.6v-.3zM25.9 31.5c.1 0 .2 0 .2-.2a.2.2 0 0 0 0-.2l-.4-.1h-.4v1h.2v-.4h.2l.3.4h.2l-.1-.2-.2-.3zm-.2 0h-.2v-.3h.4v.1l-.2.1zM27.8 31.5h.5v-.1h-.5v-.2h.5V31h-.7v1h.7v-.2h-.5v-.3z"/></symbol>
    <symbol id="icon-group" viewBox="0 0 32 32"><path d="M6.1 0 11 4.5H2v22h23.2V18l4.8 4.6V0H6zM25 17.5 11.5 4.7H25v12.8zm-4.2 5.7h-15V8.5h1v13.7h14v1zM9.3 29.3l-.6 1.2-.5-1.2h-.5l.8 1.6v.9h.4v-1l.8-1.5h-.4zm.7 2.5.2-.6h.9l.2.6h.4l-.9-2.5h-.4l-.9 2.5h.5zm.6-2 .4 1h-.7l.3-1zm2.2 1v.3c0 .2 0 .4.2.5l.5.2c.2 0 .5 0 .7-.2l.1.2h.5l-.4-.5c.2-.1.2-.4.2-.7h-.3l-.1.5-.5-.6.2-.1.2-.3v-.6a.6.6 0 0 0-.5-.2c-.2 0-.4 0-.5.2l-.1.4v.3l.2.3-.4.3zm1.1.5-.3.2-.3-.1-.1-.3c0-.1 0-.2.2-.3l.5.5zm-.4-1-.2-.4.1-.2h.4v.4h-.1l-.2.2zm4 1.3.2-.6h-.4l-.1.3-.4.2-.4-.2a1 1 0 0 1-.2-.6v-.3c0-.2 0-.4.2-.5 0-.2.2-.2.4-.2h.4l.1.4h.4c0-.2 0-.4-.3-.6l-.6-.2a1 1 0 0 0-.9.5v1.5c0 .2.2.3.4.4l.5.1c.3 0 .5 0 .6-.2zm2.4-.4.1-.6V30a1 1 0 0 0-1-.6 1 1 0 0 0-.9.6V31.2l.4.5.5.1.6-.1.3-.5zm-.4-1.3.1.6v.1l-.1.6c-.1.2-.3.3-.5.3l-.4-.3a1 1 0 0 1-.1-.6v-.1l.1-.6c.1-.2.3-.2.4-.2.2 0 .4 0 .5.2z"/></symbol>
<symbol id="icon-in" viewBox="0 0 32 32"><path d="M32 16A16 16 0 0 1 4.7 27.3 16 16 0 0 1 16 0a16 16 0 0 1 16 16z"/><path d="M23.3 23.3v-5.4c0-2.6-.6-4.6-3.6-4.6-1.5 0-2.5.8-2.9 1.6v-1.3h-3v9.7h3v-4.8c0-1.3.3-2.5 1.9-2.5 1.5 0 1.6 1.4 1.6 2.5v4.8h3zM9 13.6h3v9.7H9v-9.7zM10.5 8.7c-1 0-1.8.8-1.8 1.8s.8 1.7 1.8 1.7 1.7-.8 1.7-1.7-.8-1.8-1.7-1.8z"/></symbol>
    <symbol id="icon-facebook" viewBox="0 0 32 32"><path d="M32 16A16 16 0 0 1 4.7 27.3 16 16 0 0 1 16 0a16 16 0 0 1 16 16z"/><path d="M18.4 11.1h1.4V8.8h-2c-1.9 0-3.2 1.1-3.2 3.3v2h-2.1v2.7h2v6.5h2.7v-6.5h2l.3-2.6h-2.3v-1.8c0-.7.2-1.3 1.2-1.3z"/></symbol>
<symbol id="icon-twitter" viewBox="0 0 32 32"><path d="M32 16A16 16 0 0 1 4.7 27.3 16 16 0 0 1 16 0a16 16 0 0 1 16 16z"/><path d="m23.3 11.5-1.7.5c.6-.4 1-1 1.3-1.7a6 6 0 0 1-2 .7 3 3 0 0 0-5 2.8 8.4 8.4 0 0 1-6.2-3.2 3 3 0 0 0 1 4 3 3 0 0 1-1.4-.3 3 3 0 0 0 2.4 3 3 3 0 0 1-1.3 0 3 3 0 0 0 2.7 2 6 6 0 0 1-4.4 1.3c1.3.8 3 1.3 4.6 1.3a8.4 8.4 0 0 0 8.5-8.9c.6-.4 1-.9 1.5-1.5z"/></symbol>
    <symbol id="icon-instagram" viewBox="0 0 32 32"><path d="M32 16A16 16 0 0 1 4.7 27.3 16 16 0 0 1 16 0a16 16 0 0 1 16 16z"/><path d="M23.3 13c0-.8-.2-1.3-.4-1.8s-.4-.9-.8-1.3l-1.3-.8a49.4 49.4 0 0 0-9.5 0L10 10c-.4.4-.7.9-.9 1.3-.1.5-.3 1-.3 1.8a49.8 49.8 0 0 0 .3 7.8c.2.5.5.9.9 1.3l1.3.8a53.3 53.3 0 0 0 9.5 0c1-.4 1.7-1.2 2.1-2.1l.4-1.8v-6zm-1.4 6c0 .7-.1 1-.2 1.3-.2.6-.7 1.1-1.4 1.4a51.2 51.2 0 0 1-8.6 0c-.3-.1-.6-.3-.8-.6l-.5-.8a51.2 51.2 0 0 1 0-8.6c0-.3.3-.6.5-.8.2-.3.5-.4.8-.6a51.2 51.2 0 0 1 8.6 0l.9.6.5.8.2 1.4v5.8z"/><path d="M16 12.3a3.7 3.7 0 1 0 0 7.4 3.7 3.7 0 0 0 0-7.4zm0 6.1a2.4 2.4 0 1 1 0-4.8 2.4 2.4 0 0 1 0 4.8zM20.8 12.1a.9.9 0 1 1-1.8 0 .9.9 0 0 1 1.8 0z"/></symbol>
<symbol id="icon-astronaut" viewBox="0 0 32 32"><path d="M32 4.5c0-.2-.3-.3-.5-.3l-1.9-.3-.8-1.7c-.2-.4-.8-.4-1 0L27 3.9l-2 .3a.5.5 0 0 0-.2.9L26 6.4l-.3 2c0 .1 0 .3.2.4.2.2.4.2.6 0l1.7-.8 1.7.9a.5.5 0 0 0 .8-.6l-.3-1.9 1.3-1.3c.2-.2.2-.4.2-.6zM29.5 6c-.1 0-.2.2-.1.4l.1 1.1-1-.5a.5.5 0 0 0-.4 0l-1 .5.1-1-.1-.5-.8-.8 1.1-.2c.2 0 .3-.1.4-.3l.5-1 .5 1c0 .2.2.3.4.3l1.1.2-.8.8zM26.1 20.5h-1v1h1v-1zM26.1 22.7h-1v1h1v-1zM27.2 21.6h-1v1h1v-1zM25 21.6h-1v1h1v-1zM22.4 26.4h-1v1h1v-1zM22.4 28.5h-1v1h1v-1zM23.5 27.5h-1.1v1h1v-1zM21.3 27.5h-1v1h1v-1zM16 24.3h-1v1h1v-1zM16 26.4h-1v1h1v-1zM17 25.3h-1v1h1v-1zM15 25.3h-1.1v1h1v-1zM5.9 6.1H4.8v1h1v-1zM5.9 8.3H4.8v1h1v-1zM7 7.2H5.8v1h1v-1zM4.8 7.2h-1v1h1v-1z"/><path d="M24.7 14.2c-.3-.4-.7-.7-1.2-.7-.5-.1-1 0-1.3.3l-1.3 1-1.9 1.4-1.3-.6a7 7 0 0 0-2.9-13.2A7 7 0 0 0 9 13H6l-3.2 1.6-2 1a1.8 1.8 0 0 0 1 3.2c.3 0 .6 0 .8-.2L4 18l2.3-1.2h1.3l-5.4 5.4-1.3 1.3a1.7 1.7 0 0 0 0 2.4 1.7 1.7 0 0 0 2.3 0l1.3-1.3 1.8-1.3.9.9-1.8 1.7-1.3 1.4a1.7 1.7 0 0 0 0 2.3 1.7 1.7 0 0 0 2.3 0l3.5-3.4 1-1 5.2-5.7 3.5.5h.2l.1-.1 3.3-2.1 1.3-1.3c.7-.6.8-1.6.2-2.3zM2.1 17.8h-.5a.7.7 0 0 1-.2-1.2l1.3-.7.4 1.3-1 .6zm3.5-1.9-1.5.8-.5-1.2 2-1v1.4zm15.1-6.6c0 1-.2 1.8-.6 2.6l-4.2-2c0-.5-.3-1-.7-1.3l1.4-4.9c2.4.8 4.1 3 4.1 5.6zM9 9.3a5.9 5.9 0 0 1 6.7-5.8L14 8.3a1.9 1.9 0 1 0 0 3.7c.7 0 1.3-.4 1.6-1l3.9 1.8A5.9 5.9 0 0 1 8.9 9.3zm6 .8a.8.8 0 0 1-1.6 0 .8.8 0 0 1 1.6 0zm-12.4 15c-.3.3-.7.3-.9 0a.6.6 0 0 1 0-.8l1-1 .8.9-1 1zM5.7 29c-.3.2-.6.2-.9 0a.6.6 0 0 1 0-.9l1-1 .8 1-1 .9zm3.5-3.5-1.8 1.8-.9-.9 1.8-1.7.1-.2v-.5h-.1l-1.6-1.7h-.1l-.1-.1H6l-1.8 1.4-.9-1 2.4-2.3 4.4 4.3-1 1zm6.8-7a.6.6 0 0 0-.4 0v.1l-4.8 5.2-4.3-4.2 2.8-2.9a.5.5 0 0 0-.4-.9H6.7v-1.6H10a7 7 0 0 0 6.2 2l.1.1 2.5 1 .1.7.2 1-3-.5zm4 .2-.3-1.6 1.5-1 .9 1.2-2 1.4zm3.8-2.9-.9.8-.9-1.2.8-.6c.2-.2.4-.2.6-.2a.7.7 0 0 1 .4 1.2z"/><path d="m13.6 18.5-2.1-2a.5.5 0 0 0-.8 0l-2.1 2a.5.5 0 0 0 0 .8l2.1 2.1a.5.5 0 0 0 .8 0l2.1-2.1a.5.5 0 0 0 0-.8zm-2.5 1.8-1.4-1.4 1.4-1.4 1.4 1.4-1.4 1.4zM17.2 5l-.3 1.1s1.7.5 1.7 2.2h1.1c0-2-1.7-3-2.5-3.2zM19.7 9.3h-1v1h1v-1z"/></symbol>
    <symbol id="icon-diagram" viewBox="0 0 32 32"><path d="M15 15h1v4.8h-1V15zM19.2 17.1h1v2.7h-1V17zM10.7 18.7h1v1h-1v-1zM7.5 18.2h1v1.6h-1v-1.6z"/><path d="M1.6 28.3h25.6c.9 0 1.6-.7 1.6-1.6v-2.1c0-1-.7-1.6-1.6-1.6h-.5V9.7l3-2.9a1.6 1.6 0 1 0-.8-.8l-2.2 2.2V7c0-1-.8-1.6-1.6-1.6H3.7c-.9 0-1.6.7-1.6 1.6v16h-.5c-.9 0-1.6.7-1.6 1.6v2c0 1 .7 1.7 1.6 1.7zM30.4 4.8a.5.5 0 1 1 0 1.1.5.5 0 0 1 0-1zM3.2 7c0-.3.2-.6.5-.6h21.4c.2 0 .5.3.5.6v2.2l-1 1V8c0-.3-.3-.5-.6-.5H4.8c-.3 0-.5.2-.5.5v13.4c0 .3.2.5.5.5H24c.3 0 .5-.2.5-.5v-9.7l1-1V23H3.3V7zM8 13.9a1.6 1.6 0 1 0 1.1 2.7l1.9 1 .6-.1 4-4.5 3.8 3 .7-.1 3.4-3.2v8.1H5.3V8.6h18.2v2.6l-3.8 3.6-4-3a.5.5 0 0 0-.6.1l-4 4.5-1.5-.7v-.2c0-.9-.7-1.6-1.6-1.6zm.5 1.6a.5.5 0 1 1-1 0 .5.5 0 0 1 1 0zm3.2 8.5h5.4v.6c0 .3-.3.5-.6.5h-4.2a.5.5 0 0 1-.6-.5V24zm-10.6.6c0-.3.2-.6.5-.6h9v.6c0 .8.8 1.6 1.7 1.6h4.2c1 0 1.6-.8 1.6-1.6V24h9c.4 0 .6.3.6.6v2c0 .4-.2.6-.5.6H1.6a.5.5 0 0 1-.5-.5v-2.1z"/></symbol>
<symbol id="icon-clock" viewBox="0 0 32 32"><path d="M31.3 15.3a15.3 15.3 0 1 0-19.8 14.6h.4l.2-.4 4-12.3a2 2 0 1 0-1-3.6l-5-5.1a.6.6 0 0 0-1 .9l5.2 5c-.4.9-.2 1.8.5 2.4l-3.7 11.7a14 14 0 1 1 10.6-.4l-.4-1.9a.6.6 0 0 0-1-.3l-3.9 3.4a.6.6 0 0 0 .2 1.1l5 1.6a.6.6 0 0 0 .8-.8l-.4-1.8c5.6-2.4 9.3-8 9.3-14.1zM16 14.7a.6.6 0 1 1 0 1.2.6.6 0 0 1 0-1.2zm2 14.8 2.3-2 .6 3-2.8-1z"/><path d="M15.4 3.2v1.3a.6.6 0 1 0 1.2 0V3.2a.6.6 0 0 0-1.2 0zM3.9 14.7a.6.6 0 0 0 0 1.2h1.3a.6.6 0 1 0 0-1.2H3.9zM28.1 16a.6.6 0 1 0 0-1.3h-1.3a.6.6 0 0 0 0 1.2h1.3z"/></symbol>
    <symbol id="icon-antenna" viewBox="0 0 32 32"><path d="m30.8 22.1-8.5-8.5 1-4.6.7.1a2.2 2.2 0 1 0-2-1.4l-5 .6L9 .2a.5.5 0 0 0-.4-.2c-.1 0-.3 0-.4.2L6.7 1.7c-.2.2-.2.5 0 .7l.8.8A15 15 0 0 0 10.2 21v6.7H3.6a2.7 2.7 0 0 0-2.6 2.7v1c0 .4.2.6.5.6h24.5c.3 0 .6-.2.6-.5v-1.1c0-1.5-1.2-2.7-2.7-2.7h-6.4V25a15 15 0 0 0 10-1.5l1 .9.3.1.4-.1 1.5-1.5c.2-.3.2-.6 0-.8zM23.3 6.2a1 1 0 1 1 .7 1.9 1 1 0 0 1-.7-1.9zM22 9.7l-.6 3-1.1-1.2L22 9.7zm-.6-.9-1.9 2L18 9.2l3.4-.5zm2.6 20c.9 0 1.6.7 1.6 1.6v.5H2.1v-.5c0-.9.8-1.6 1.6-1.6H24zm-7.5-2.1v1h-5.3v-1h5.3zm-5.3-1.1v-4c0-1.3 1.2-2.4 2.7-2.4s2.6 1 2.6 2.3v4.1h-5.3zm6.4-1.7v-2.4c0-1.8-1.7-3.4-3.7-3.4-1.4 0-2.6.7-3.3 1.8-4-4.3-5-10.6-2.3-15.9L27 22.7a13.8 13.8 0 0 1-9.3 1.2zm11.3-.7L7.9 2l.7-.7 8 8 13 13.2-.7.7z"/><path d="M13.9 20.3a1.6 1.6 0 1 0 0 3.2 1.6 1.6 0 1 0 0-3.2zm.3 2-.3.1a.5.5 0 0 1 0-1 .5.5 0 0 1 .3.8z"/></symbol>
<symbol id="icon-tel" viewBox="0 0 32 32"><path d="M23 0H9a3 3 0 0 0-3 3v26a3 3 0 0 0 3 3h14a3 3 0 0 0 3-3V3a3 3 0 0 0-3-3zM9 2h14c.6 0 1 .4 1 1v21H8V3c0-.6.4-1 1-1zm14 28H9a1 1 0 0 1-1-1v-3h16v3c0 .6-.4 1-1 1z"/></symbol>
    <symbol id="icon-email" viewBox="0 0 32 32"><path d="M29 4H3a3 3 0 0 0-3 3v18a3 3 0 0 0 3 3h26a3 3 0 0 0 3-3V7a3 3 0 0 0-3-3zm0 2h.4L16 17.8 2.6 6 3 6h26zm0 20H3a1 1 0 0 1-1-1V8.2l13.3 11.6a1 1 0 0 0 1.4 0L30 8.2V25c0 .6-.4 1-1 1z"/></symbol></defs></svg>